<svg width="24" height="24" viewBox="0 0 24 24" fill="none" xmlns="http://www.w3.org/2000/svg">
<path d="M21.504 18.381H19.222C18.359 18.381 18.099 17.682 16.552 16.134C15.2 14.831 14.629 14.669 14.287 14.669C13.814 14.669 13.685 14.799 13.685 15.45V17.502C13.685 18.057 13.505 18.382 12.055 18.382C10.6483 18.2875 9.28416 17.8602 8.07497 17.1352C6.86578 16.4102 5.84612 15.4083 5.1 14.212C3.32901 12.0066 2.09641 9.41885 1.5 6.65401C1.5 6.31201 1.63 6.00201 2.282 6.00201H4.562C5.148 6.00201 5.359 6.26301 5.589 6.86601C6.696 10.124 8.585 12.958 9.352 12.958C9.646 12.958 9.774 12.828 9.774 12.095V8.73901C9.677 7.20801 8.864 7.07901 8.864 6.52501C8.87428 6.37885 8.94114 6.24246 9.05037 6.1448C9.15961 6.04715 9.30261 5.99592 9.449 6.00201H13.033C13.523 6.00201 13.685 6.24601 13.685 6.83201V11.362C13.685 11.851 13.895 12.013 14.043 12.013C14.337 12.013 14.563 11.851 15.102 11.313C16.2569 9.90367 17.2008 8.33392 17.904 6.65301C17.9756 6.45097 18.1116 6.278 18.2909 6.1606C18.4703 6.04319 18.6832 5.98784 18.897 6.00301H21.178C21.862 6.00301 22.007 6.34501 21.862 6.83301C21.0321 8.6913 20.0056 10.4554 18.8 12.095C18.554 12.47 18.456 12.665 18.8 13.105C19.026 13.447 19.826 14.115 20.363 14.75C21.145 15.53 21.794 16.432 22.285 17.42C22.481 18.056 22.155 18.381 21.504 18.381Z" fill="white"/>
</svg>
