<svg width="24" height="25" viewBox="0 0 24 25" fill="none" xmlns="http://www.w3.org/2000/svg">
<path fill-rule="evenodd" clip-rule="evenodd" d="M23.405 17.6082C22.861 16.5127 22.1442 15.5119 21.282 14.6442C20.9936 14.3183 20.6917 14.0047 20.377 13.7042L20.339 13.6672C20.2222 13.5541 20.1068 13.4394 19.993 13.3232C21.1716 11.684 22.1802 9.92892 23.003 8.08521L23.036 8.01121L23.059 7.93321C23.168 7.57021 23.292 6.88021 22.852 6.25621C22.396 5.61221 21.667 5.49621 21.178 5.49621H18.931C18.4605 5.47477 17.9953 5.60271 17.6019 5.86172C17.2086 6.12073 16.9072 6.49754 16.741 6.93821C16.2574 8.08985 15.652 9.18643 14.935 10.2092V7.57621C14.935 7.23621 14.903 6.66621 14.538 6.18621C14.102 5.61021 13.471 5.49621 13.033 5.49621H9.467C9.00167 5.4855 8.55005 5.65417 8.20567 5.96729C7.86128 6.2804 7.65051 6.71397 7.617 7.17821L7.614 7.22321V7.26821C7.614 7.75321 7.806 8.11121 7.96 8.33621C8.029 8.43721 8.102 8.52921 8.149 8.58721L8.159 8.60021C8.209 8.66221 8.242 8.70321 8.275 8.74921C8.363 8.86721 8.488 9.05121 8.524 9.52521V10.9982C7.80818 9.79953 7.22124 8.52845 6.773 7.20621L6.765 7.18421L6.757 7.16321C6.635 6.84421 6.44 6.38021 6.049 6.02621C5.593 5.61121 5.053 5.49621 4.562 5.49621H2.282C1.785 5.49621 1.186 5.61221 0.739 6.08321C0.3 6.54721 0.25 7.10321 0.25 7.39721V7.53121L0.278 7.66121C0.909301 10.592 2.21024 13.3369 4.079 15.6812C4.93338 17.0285 6.09329 18.1555 7.46465 18.9707C8.83601 19.7859 10.3802 20.2664 11.972 20.3732L12.013 20.3762H12.055C12.781 20.3762 13.538 20.3132 14.107 19.9342C14.874 19.4222 14.935 18.6372 14.935 18.2452V17.1072C15.132 17.2672 15.376 17.4812 15.675 17.7692C16.037 18.1312 16.325 18.4452 16.572 18.7192L16.704 18.8652C16.896 19.0792 17.085 19.2902 17.257 19.4632C17.473 19.6802 17.74 19.9192 18.074 20.0962C18.437 20.2872 18.818 20.3742 19.222 20.3742H21.503C21.984 20.3742 22.673 20.2602 23.158 19.6982C23.686 19.0862 23.646 18.3352 23.48 17.7962L23.45 17.6992L23.405 17.6082ZM17.685 17.7142C17.3751 17.3678 17.056 17.0296 16.728 16.7002L16.725 16.6972C15.368 15.3892 14.735 15.1622 14.287 15.1622C14.048 15.1622 13.785 15.1882 13.614 15.4022C13.537 15.5043 13.4865 15.6239 13.467 15.7502C13.4429 15.8969 13.4322 16.0455 13.435 16.1942V18.2452C13.435 18.5002 13.393 18.6072 13.275 18.6852C13.118 18.7902 12.783 18.8752 12.064 18.8752C10.6982 18.7823 9.37398 18.3665 8.20018 17.6621C7.02637 16.9577 6.03652 15.9847 5.312 14.8232L5.304 14.8102L5.294 14.7982C3.55312 12.6314 2.33984 10.0895 1.75 7.37321C1.754 7.24321 1.782 7.16421 1.828 7.11621C1.875 7.06621 1.99 6.99621 2.282 6.99621H4.562C4.815 6.99621 4.947 7.05221 5.042 7.13721C5.148 7.23521 5.242 7.40021 5.354 7.69421C5.914 9.34021 6.67 10.8802 7.387 12.0122C7.745 12.5772 8.097 13.0482 8.415 13.3812C8.574 13.5472 8.729 13.6852 8.878 13.7832C9.021 13.8772 9.184 13.9522 9.352 13.9522C9.44 13.9522 9.543 13.9422 9.642 13.8992C9.74892 13.852 9.83693 13.7703 9.892 13.6672C9.995 13.4792 10.024 13.2022 10.024 12.8392V9.46621C9.971 8.64821 9.724 8.18721 9.484 7.86021C9.4354 7.79481 9.38538 7.73046 9.334 7.66721L9.321 7.65121C9.27836 7.59942 9.23766 7.54605 9.199 7.49121C9.14977 7.43006 9.12015 7.35547 9.114 7.27721C9.12185 7.19775 9.15976 7.12429 9.21999 7.07186C9.28022 7.01944 9.35821 6.99202 9.438 6.99521H13.033C13.239 6.99521 13.308 7.04521 13.343 7.09221C13.393 7.15721 13.435 7.29221 13.435 7.57621V12.1042C13.435 12.6422 13.683 13.0062 14.043 13.0062C14.457 13.0062 14.756 12.7552 15.278 12.2332L15.287 12.2232L15.295 12.2142C16.466 10.7865 17.4227 9.19579 18.135 7.49221L18.139 7.48021C18.1925 7.3297 18.2938 7.20082 18.4274 7.11326C18.561 7.02569 18.7196 6.98423 18.879 6.99521H21.179C21.491 6.99521 21.593 7.07521 21.627 7.12221C21.662 7.17221 21.687 7.27921 21.627 7.48921C20.8056 9.32557 19.7901 11.0688 18.598 12.6892L18.59 12.7012C18.475 12.8782 18.348 13.0742 18.33 13.2982C18.31 13.5402 18.414 13.7592 18.597 13.9952C18.73 14.1912 19.005 14.4602 19.284 14.7332L19.31 14.7592C19.602 15.0452 19.919 15.3552 20.173 15.6552L20.18 15.6622L20.187 15.6702C20.9444 16.4257 21.5743 17.299 22.052 18.2562C22.128 18.5162 22.082 18.6502 22.022 18.7192C21.953 18.7992 21.798 18.8742 21.504 18.8742H19.222C19.0665 18.878 18.9126 18.8418 18.775 18.7692C18.6064 18.6711 18.4534 18.5485 18.321 18.4052C18.178 18.2622 18.023 18.0892 17.833 17.8782L17.685 17.7142Z" fill="white"/>
</svg>
