<svg width="24" height="25" viewBox="0 0 24 25" fill="none" xmlns="http://www.w3.org/2000/svg">
<path d="M19.5527 3.74007C19.3119 3.75759 19.0756 3.81408 18.853 3.90732H18.85C18.6362 3.99207 17.62 4.41957 16.075 5.06757L10.5385 7.39932C6.56571 9.07182 2.66046 10.7188 2.66046 10.7188L2.70696 10.7008C2.70696 10.7008 2.43771 10.7893 2.15646 10.9821C1.98271 11.0926 1.83319 11.2373 1.71696 11.4073C1.57896 11.6098 1.46796 11.9196 1.50921 12.2398C1.57671 12.7813 1.92771 13.1061 2.17971 13.2853C2.43471 13.4668 2.67771 13.5516 2.67771 13.5516H2.68371L6.34596 14.7853C6.51021 15.3126 7.46196 18.4416 7.69071 19.1623C7.82571 19.5928 7.95696 19.8621 8.12121 20.0676C8.20071 20.1726 8.29371 20.2603 8.40546 20.3308C8.46356 20.3646 8.5255 20.3913 8.58996 20.4103L8.55246 20.4013C8.56371 20.4043 8.57271 20.4133 8.58096 20.4163C8.61096 20.4246 8.63121 20.4276 8.66946 20.4336C9.24921 20.6091 9.71496 20.2491 9.71496 20.2491L9.74121 20.2281L11.9035 18.2593L15.5275 21.0396L15.61 21.0748C16.3652 21.4063 17.1302 21.2218 17.5345 20.8963C17.9417 20.5686 18.1 20.1493 18.1 20.1493L18.1262 20.0818L20.9267 5.73507C21.0062 5.38107 21.0265 5.04957 20.9387 4.72782C20.8482 4.40219 20.6393 4.12213 20.353 3.94257C20.1125 3.79641 19.8337 3.72586 19.5527 3.74007ZM19.477 5.27757C19.474 5.32482 19.483 5.31957 19.462 5.41032V5.41857L16.6877 19.6161C16.6757 19.6363 16.6555 19.6806 16.6 19.7248C16.5415 19.7713 16.495 19.8006 16.2512 19.7038L11.8187 16.3056L9.14121 18.7461L9.70371 15.1536L16.9457 8.40357C17.2442 8.12607 17.1445 8.06757 17.1445 8.06757C17.1655 7.72707 16.6937 7.96782 16.6937 7.96782L7.56171 13.6251L7.55871 13.6101L3.18171 12.1363V12.1333L3.17046 12.1311C3.17813 12.1285 3.18565 12.1255 3.19296 12.1221L3.21696 12.1101L3.24021 12.1018C3.24021 12.1018 7.14846 10.4548 11.1212 8.78232C13.1102 7.94457 15.1142 7.10082 16.6555 6.44982C17.5695 6.06508 18.4845 5.68258 19.4005 5.30232C19.462 5.27832 19.4327 5.27757 19.477 5.27757Z" fill="white"/>
</svg>
