<svg width="16" height="16" viewBox="0 0 16 16" fill="none" xmlns="http://www.w3.org/2000/svg">
    <g clip-path="url(#a)">
        <path d="m8.884 8 6.933-6.932a.625.625 0 1 0-.884-.884L8 7.117 1.067.184a.625.625 0 1 0-.884.884L7.116 8 .183 14.934a.625.625 0 1 0 .884.884L8 8.885l6.933 6.933a.623.623 0 0 0 .884 0 .625.625 0 0 0 0-.884L8.884 8z" fill="#ffffff"/>
    </g>
    <defs>
        <clipPath id="a">
            <path fill="#ffffff" d="M0 0h16v16H0z"/>
        </clipPath>
    </defs>
</svg>
