<svg width="24" height="24" viewBox="0 0 24 24" fill="none" xmlns="http://www.w3.org/2000/svg">
    <path opacity=".4" d="M21 9.052h-1.5v3.75a3.75 3.75 0 0 1-3.75 3.75H9v1.5a3 3 0 0 0 3 3h4.5l3.27 2.722a.75.75 0 0 0 1.23-.577v-2.145a3 3 0 0 0 3-3v-6a3 3 0 0 0-3-3z" fill="#fff"/>
    <path d="M15 .052H3a3 3 0 0 0-3 3v9a3 3 0 0 0 3 3v2.872a.75.75 0 0 0 1.237.57l4.013-3.442H15a3 3 0 0 0 3-3v-9a3 3 0 0 0-3-3zM5.558 8.609a1.057 1.057 0 0 1-.226.188 1.665 1.665 0 0 1-.255.142 1.995 1.995 0 0 1-.284.083A1.5 1.5 0 0 1 3 7.552a1.5 1.5 0 0 1 1.793-1.5c.096.02.191.048.284.082.091.038.177.085.255.143.082.052.157.112.226.18.29.29.45.685.442 1.095-.002.397-.16.778-.442 1.057zm4.5 0c-.28.282-.66.441-1.058.443a1.272 1.272 0 0 1-.293 0 1.995 1.995 0 0 1-.285-.083 1.665 1.665 0 0 1-.255-.142 1.362 1.362 0 0 1-.232-.188A1.5 1.5 0 0 1 7.5 7.552a1.272 1.272 0 0 1 0-.293c.02-.096.048-.192.082-.285.038-.09.085-.176.143-.255.053-.082.114-.16.18-.232.072-.066.15-.127.232-.18.08-.058.165-.105.255-.143a1.97 1.97 0 0 1 .316-.112 1.5 1.5 0 0 1 1.792 1.5c0 .396-.156.776-.435 1.057h-.008zm4.5 0a1.056 1.056 0 0 1-.226.188 1.662 1.662 0 0 1-.255.142 1.997 1.997 0 0 1-.284.083A1.5 1.5 0 0 1 12 7.552a1.5 1.5 0 0 1 1.793-1.5c.096.02.192.048.285.082.09.038.176.085.255.143.081.052.156.112.224.18.291.29.451.685.443 1.095-.002.397-.16.778-.443 1.057z" fill="#fff"/>
</svg>
