<svg width="24" height="25" viewBox="0 0 24 25" fill="none" xmlns="http://www.w3.org/2000/svg">
<path d="M19.0498 5.65322C18.133 4.72715 17.041 3.99289 15.8374 3.49327C14.6339 2.99366 13.3429 2.73868 12.0398 2.74322C6.5798 2.74322 2.1298 7.19322 2.1298 12.6532C2.1298 14.4032 2.5898 16.1032 3.4498 17.6032L2.0498 22.7432L7.2998 21.3632C8.7498 22.1532 10.3798 22.5732 12.0398 22.5732C17.4998 22.5732 21.9498 18.1232 21.9498 12.6632C21.9498 10.0132 20.9198 7.52322 19.0498 5.65322ZM12.0398 20.8932C10.5598 20.8932 9.1098 20.4932 7.8398 19.7432L7.5398 19.5632L4.4198 20.3832L5.2498 17.3432L5.0498 17.0332C4.22755 15.7202 3.79094 14.2025 3.7898 12.6532C3.7898 8.11322 7.4898 4.41322 12.0298 4.41322C14.2298 4.41322 16.2998 5.27322 17.8498 6.83322C18.6173 7.59719 19.2255 8.50589 19.6392 9.50665C20.0529 10.5074 20.2638 11.5803 20.2598 12.6632C20.2798 17.2032 16.5798 20.8932 12.0398 20.8932ZM16.5598 14.7332C16.3098 14.6132 15.0898 14.0132 14.8698 13.9232C14.6398 13.8432 14.4798 13.8032 14.3098 14.0432C14.1398 14.2932 13.6698 14.8532 13.5298 15.0132C13.3898 15.1832 13.2398 15.2032 12.9898 15.0732C12.7398 14.9532 11.9398 14.6832 10.9998 13.8432C10.2598 13.1832 9.7698 12.3732 9.6198 12.1232C9.4798 11.8732 9.5998 11.7432 9.7298 11.6132C9.8398 11.5032 9.9798 11.3232 10.0998 11.1832C10.2198 11.0432 10.2698 10.9332 10.3498 10.7732C10.4298 10.6032 10.3898 10.4632 10.3298 10.3432C10.2698 10.2232 9.7698 9.00322 9.5698 8.50322C9.3698 8.02322 9.1598 8.08322 9.0098 8.07322H8.5298C8.3598 8.07322 8.0998 8.13322 7.8698 8.38322C7.6498 8.63322 7.0098 9.23322 7.0098 10.4532C7.0098 11.6732 7.89981 12.8532 8.0198 13.0132C8.1398 13.1832 9.7698 15.6832 12.2498 16.7532C12.8398 17.0132 13.2998 17.1632 13.6598 17.2732C14.2498 17.4632 14.7898 17.4332 15.2198 17.3732C15.6998 17.3032 16.6898 16.7732 16.8898 16.1932C17.0998 15.6132 17.0998 15.1232 17.0298 15.0132C16.9598 14.9032 16.8098 14.8532 16.5598 14.7332Z" fill="white"/>
</svg>
