<svg width="24" height="26" viewBox="0 0 24 26" xmlns="http://www.w3.org/2000/svg">
<path fill-rule="evenodd" clip-rule="evenodd" d="M10.5533 0.943825C7.89525 1.06429 5.72118 1.58694 4.20024 2.47105C3.66774 2.7806 3.15002 3.16498 2.84121 3.48006C2.12589 4.20995 1.57949 5.08861 1.18889 6.13726C0.836513 7.08332 0.635394 8.098 0.528593 9.46862C0.490806 9.9535 0.490341 13.1476 0.527979 13.6366C0.583559 14.3585 0.648067 14.8638 0.756222 15.4243C1.14974 17.4639 2.11984 19.1683 3.4417 20.1425C4.16059 20.6724 5.03167 21.1113 5.95939 21.4113L6.23443 21.5002L6.24592 22.9687C6.25877 24.6085 6.25386 24.5544 6.41048 24.7842C6.51168 24.9327 6.62398 25.0103 6.8006 25.0536C7.11432 25.1307 7.44866 24.9976 7.7895 24.66C7.97846 24.4728 9.15638 23.172 9.78883 22.4521L10.0639 22.139L10.2226 22.1508C10.9766 22.2066 12.6541 22.212 13.6077 22.1618C15.9739 22.0371 17.8964 21.6076 19.3518 20.8785C20.5901 20.2582 21.397 19.543 22.0919 18.4498C22.4432 17.897 22.8123 17.0672 23.0047 16.3976C23.2456 15.5588 23.3884 14.7161 23.4709 13.6472C23.5096 13.1457 23.5097 9.98834 23.4711 9.46862C23.3364 7.65556 22.9685 6.24872 22.3141 5.04374C21.9223 4.32228 21.3215 3.57727 20.779 3.14015C19.1218 1.80486 16.7325 1.09472 13.3855 0.942682C12.8579 0.918711 11.0915 0.919431 10.5533 0.943825ZM13.4807 2.67924C14.7105 2.73702 15.7358 2.87991 16.7933 3.14093C18.0899 3.46095 19.315 4.07677 19.9516 4.72847C20.1923 4.97495 20.3528 5.1769 20.5646 5.49971C21.2311 6.51564 21.6013 7.78269 21.7364 9.51093C21.7745 9.9977 21.7746 13.1064 21.7365 13.5943C21.6224 15.0575 21.3445 16.1788 20.8715 17.0852C20.2981 18.1836 19.6846 18.7783 18.5479 19.3373C17.0637 20.0672 15.1424 20.4245 12.4969 20.4628C11.6658 20.4748 10.3288 20.4485 10.1273 20.4162C10.0665 20.4064 10.0087 20.4677 8.74155 21.8855L7.41923 23.365L7.40865 21.691L7.39808 20.017L7.31345 19.9978C6.75938 19.8717 5.89664 19.5657 5.40931 19.3223C4.63426 18.9353 4.0832 18.5008 3.67186 17.9525C2.96845 17.0148 2.55627 15.9226 2.35333 14.4587C2.24761 13.6961 2.2372 13.441 2.23644 11.5949C2.23574 9.83912 2.24503 9.54667 2.3221 8.89738C2.51296 7.29011 2.96308 6.06577 3.72014 5.09479C4.19548 4.48512 4.88738 3.99921 5.879 3.57863C6.75158 3.2085 7.97139 2.91903 9.27048 2.77377C9.5287 2.74489 9.67082 2.73272 10.2966 2.68582C10.9095 2.63991 12.5704 2.63646 13.4807 2.67924ZM11.7551 4.99998C11.3171 5.21312 11.3168 5.81091 11.7547 6.03463C11.8474 6.08196 11.8971 6.08976 12.2096 6.10593C12.6166 6.12698 12.7858 6.14884 13.1211 6.22365C13.9372 6.40572 14.6578 6.76159 15.313 7.30607C15.8774 7.7751 16.3036 8.31913 16.6339 8.99258C17.0164 9.7722 17.1496 10.3669 17.1744 11.4045C17.1816 11.707 17.1967 11.9914 17.208 12.0364C17.234 12.1401 17.3889 12.3079 17.5149 12.3689C17.775 12.4948 18.124 12.3717 18.2694 12.1027C18.3136 12.021 18.3151 11.9952 18.3145 11.3516C18.3139 10.6572 18.3043 10.5461 18.196 9.97946C18.1455 9.71565 17.9961 9.21201 17.8905 8.95027C17.5529 8.11338 17.1367 7.48146 16.4956 6.83261C16.0251 6.35639 15.6131 6.04163 15.0348 5.71668C14.2299 5.26447 13.2042 4.98166 12.2536 4.94992L11.8834 4.93757L11.7551 4.99998ZM7.16651 5.54514C6.68015 5.63654 6.21 5.92353 5.72597 6.42447C5.28211 6.88383 5.10238 7.27012 5.10266 7.76416C5.10302 8.44032 5.30295 9.03137 5.90026 10.1219C6.50865 11.2327 7.2449 12.3129 8.06516 13.2981C8.42043 13.7248 9.26079 14.5823 9.73594 15.0029C11.2133 16.3108 13.5675 17.7569 14.7107 18.0586C15.0284 18.1425 15.417 18.1932 15.607 18.1756C16.022 18.1373 16.3706 17.9714 16.7698 17.6224C17.2145 17.2336 17.5643 16.7092 17.6927 16.2389C17.7607 15.9895 17.7624 15.6787 17.6964 15.5352C17.5639 15.2472 16.9549 14.7758 15.8927 14.1388C15.3561 13.8171 15.0401 13.6795 14.6624 13.6029C14.2231 13.5139 13.9747 13.6399 13.5542 14.1651C13.2593 14.5335 13.1537 14.6166 12.8951 14.684C12.7213 14.7292 12.5427 14.7231 12.3096 14.664C11.6528 14.4974 10.8588 13.9909 10.1202 13.2673C9.52183 12.6811 9.11316 12.1319 8.81279 11.5103C8.53159 10.9284 8.48217 10.4973 8.65874 10.1669C8.737 10.0205 8.81869 9.93418 9.07749 9.7246C9.34887 9.50482 9.55081 9.28388 9.63311 9.11671C9.69758 8.98575 9.69936 8.97479 9.68673 8.78594C9.67306 8.5814 9.61737 8.36716 9.50469 8.08541C9.41532 7.86199 9.41001 7.85211 9.10582 7.34233C8.64243 6.56586 8.34437 6.14253 8.01703 5.79608C7.77689 5.54196 7.54601 5.47384 7.16651 5.54514ZM12.0358 6.70639C11.7662 6.80255 11.6169 7.03754 11.646 7.31973C11.6612 7.46692 11.7221 7.58229 11.8389 7.68512C11.9547 7.78701 12.0292 7.81049 12.3634 7.85027C13.5197 7.98798 14.4547 8.60837 15.0122 9.60794C15.2771 10.0829 15.3971 10.5171 15.4458 11.1768C15.4663 11.4535 15.4999 11.5533 15.6142 11.6769C15.7033 11.7732 15.8617 11.8378 16.009 11.8379C16.2133 11.838 16.2908 11.8066 16.4255 11.6692C16.5812 11.5103 16.6026 11.4388 16.596 11.1008C16.5802 10.2852 16.3115 9.44456 15.8422 8.74168C15.6137 8.39953 15.4594 8.21305 15.194 7.95845C14.4703 7.26413 13.5791 6.83695 12.5858 6.70823C12.2831 6.669 12.1419 6.66854 12.0358 6.70639ZM12.3853 8.50534C12.1801 8.5694 12.0204 8.77797 12.0039 9.0034C11.9824 9.29845 12.141 9.51271 12.4588 9.61782C13.064 9.81792 13.4562 10.2093 13.6492 10.8057C13.7056 10.9802 13.7614 11.0651 13.8782 11.1542C14.103 11.3256 14.421 11.302 14.6242 11.0987C14.8086 10.9143 14.8362 10.7067 14.7215 10.3667C14.5723 9.92451 14.3612 9.58704 14.0204 9.2463C13.6676 8.89348 13.2738 8.6543 12.8384 8.52844C12.6311 8.46852 12.5211 8.46292 12.3853 8.50534Z"/>
</svg>
